<?xml version="1.0" encoding="utf-8"?>
<!-- Generator: Adobe Illustrator 19.0.0, SVG Export Plug-In . SVG Version: 6.00 Build 0)  -->
<svg version="1.1" id="Layer_1" xmlns="http://www.w3.org/2000/svg" xmlns:xlink="http://www.w3.org/1999/xlink" x="0px" y="0px"
	 viewBox="0 0 42.2 104.8" style="enable-background:new 0 0 42.2 104.8;" xml:space="preserve">
<style type="text/css">
	.st0{fill:#F1F2F2;}
</style>
<g id="XMLID_2_">
	<path id="XMLID_6_" d="M13,2c-0.8,0.8-0.8,2-0.8,2.7c0,1.2,0.6,2.6,0.5,3.7c0.1,0.6-0.4,1.7,1.7,2.3c0.1,2.3,0.2,1.7,0.2,3.2
		c-0.5,0.7-1.2,1.2-2.9,2.1c-1.6,0.8-1.9,0.8-3,1.4c-1.7,0.9-2.5,1.3-3,2.1c-0.8,1.2-1.1,2.6-1.5,4.8c-0.1,0.7-0.3,2.3-1.4,5
		c-2.7,6.8-2.8,4.8-2.5,8.1c0,0.6,3.3,6.5,5.9,11.8c0.4,0.9,1.2-0.1,2,0.1c0.4,0.9-0.4,1.9,1.9,3c1.3,4.4,1.5,9.1,2.1,13.4
		c0.3,2.3,0.2,2.6,0.8,6.6c0.6,4.1,0.3,5.7,0.3,7.4c0.2,4.7,0.5,6.7,0.4,8.4c0,0.3-0.1,0.9,0.1,1.6c0.4,1.3,0.8,1.5,1.3,2.7
		c0.2,0.4-0.1,1.8,0,3.8c1,1.2,0.5,1.6-0.7,3.1c-0.8,0.9-0.6,0.8-1.3,1.7c-3.8,4.9,0,3.6,2.5,2.6c0.5-0.2,1.5-0.4,2-1.2
		c0.3-0.6,0.7-0.9,1.1-0.8c0.7,0.2,1.6-0.5,1.9-1.1c0.1-1,0-1.8,0-2.1c0-0.2,1,0,0.9-0.5c-0.2-1.2-0.1-4.2-0.5-5.2
		c-0.4-1-0.8-3.4-0.6-4.6c0.3-1.6,0.4-2.4,0.4-3.9c0-1.3-0.2-3.2-0.2-4.4c-0.1-2.3-0.6-4.4-0.1-7.8c0.8-6.1,0.1-11.2,0.5-11.3
		c1-0.2,1.2,3,1.9,4.9c0.5,1.5,2.2,7.3,3.8,13.4c1.3,4.5,1.9,8.9,2.1,10.6c0.2,1.3,1,4.7,1.7,9.4c0.4,0.1,0.4,0.1,0.7,0.2
		c0,0.3,0.1,1.2,0.1,1.5c0.4,0.5,1.5,1.5,2.2,1.4c1.8-0.4,1.1,0.8,2.6,1.5c3,1.3,5.7,1.2,6.1,1c0.6-0.2,0.1-1.2-1.4-3
		c-1.7-2.1-2.3-2.1-3-3.2c-0.8-1.2-0.4-1.6-1-4.7c-0.6-3.2-1.1-7.2-0.9-10.8c0.1-1.8-0.3-3.7-0.7-5.8c-0.4-2.3-1.2-3.9-1.7-6
		c-1.1-4.5-1.5-5.9-1.9-9.2c-1-7.6-1.8-11-1.6-11.3c0.4-0.2,1.9,2.5,2.4,2.5c0.2-0.3-0.2-2.1-0.1-3.2c0.2,0.1,0.7,0.1,0.8-0.1
		c0.5-1.3,0.7-4.2,0.9-4.9c0.3-1.1,0.3-1.3,0.9-3c0.5-1.6,0.5-3,0.5-4.1c0-1.4-0.1-2.4-1.2-7.1c-0.9-4-0.9-7.9-3.4-11.5
		c-0.6-0.9-1.2-1-3-1.6c-3.4-1.1-5.4-2.9-7.1-4c0-0.6,0-0.9,0.3-1.4c0.2,0,0.6-0.2,0.7-0.3c0.1-0.2,0.3-2.8,0.5-3
		c0.5-0.4-0.2-1.3-0.2-3.6c0-1.7-0.7-1.5-0.7-2.4c0.1-1.2,0-1.4-0.5-1.9c-0.3-0.2-0.4-0.2-0.7-0.5C19.7,0.2,19.4,0,19.1,0
		c-2.3,0-1.6,1.1-3.8,0.8C14.5,0.7,13.7,1.3,13,2z"/>
	<path id="XMLID_5_" class="st0" d="M15.1,14.3c-0.4,0.5-0.7,0.7-1,0.9c-1.1,11.1,2.3,19.7-2.1,29.4c3.4-0.4,4.6-0.4,7.1-0.5
		c0-0.6-1.3-6.7-1.5-12.1c-0.2-5.4-0.2-9.4,0.1-10.5c0.1-0.5,0.4-1.7,0.2-2.1c-0.4-0.3-0.6-0.6-0.7-0.9c0.2-0.5,0.4-1,1-1.3
		c0.5,0.2,1,0.7,1.3,1.2c-0.1,0.4-0.2,0.6-0.4,0.8c-0.3,0.3-0.5,1,0,2.1c1.1,2.5,3.7,17.8,4.5,22.5c1.4-0.1,2.7-0.2,3-0.8
		c-3.1-7.5-3.8-11.1-3.9-18.6c0-2.6,0.8-5.2-0.2-8.9c-0.2-0.3-1-1.2-1.8-1.5c-0.2-0.1-0.3-0.1-0.5-0.1c-0.7,1.2-1.2,2.2-2.1,3
		C17.1,16.4,16.2,15.8,15.1,14.3z"/>
	<path id="XMLID_4_" class="st0" d="M7.3,33.3c-0.8,2.5-2.1,2.9-1.7,4c0.3,0.9,2,2.9,2.3,4.7C8.6,39.1,7.7,34.4,7.3,33.3z"/>
	<path id="XMLID_3_" class="st0" d="M28.4,29.6c-0.8,6.3,0.7,5.4,1.2,10.1c0.8-3.7,0.9-3.1,0.9-4C30.4,34.8,29.9,33.9,28.4,29.6z"/>
</g>
</svg>
