<?xml version="1.0" encoding="UTF-8"?>
<!DOCTYPE svg PUBLIC "-//W3C//DTD SVG 1.1//EN" "http://www.w3.org/Graphics/SVG/1.1/DTD/svg11.dtd">
<svg version="1.1" xmlns="http://www.w3.org/2000/svg" xmlns:xlink="http://www.w3.org/1999/xlink" x="0" y="0" width="137.4" height="127.1" viewBox="0, 0, 137.4, 127.1">
  <g id="Layer_1">
    <path d="M28.95,32.63 L31.335,30.661 L30.113,19.375 L30.112,17.056 L48.639,16.378 L60,7 L59.1,28.3 L30.938,50.537 L28.95,32.63 z" fill="#FFFFFF"/>
    <path d="M30.112,17.056 L33.632,6.694 L57.582,6.597 L56.701,17.154 L30.112,17.056 z" fill="#000000"/>
    <path d="M37.52,8.968 L53.738,8.968 L53.082,14.687 L35.832,14.687 L37.52,8.968 z" fill="#FFFFFF"/>
    <path d="M18.3,76.75 L17.738,71.312 L69,31 L120.488,71.125 L119.55,76.75 L68.925,36.812 L18.3,76.75 z" fill="#FFFFFF"/>
    <g>
      <path d="M18.488,76.375 L24.675,127.188 L112.238,127.188 L119.738,76.375 L69.113,36.438 L18.488,76.375 z" fill="#000000"/>
      <g>
        <path d="M66.863,91.938 L47.363,91.938 L46.238,70 L67.05,70 L66.863,91.938 z" fill="#FFFFFF"/>
        <path d="M47.55,95.688 L67.05,95.688 L67.05,115 L48.863,115 L47.55,95.688 z" fill="#FFFFFF"/>
        <path d="M70.8,70 L91.8,70 L90.113,91.938 L70.988,91.938 L70.8,70 z" fill="#FFFFFF"/>
        <path d="M70.8,95.688 L89.738,95.688 L88.238,115 L70.8,115 L70.8,95.688 z" fill="#FFFFFF"/>
      </g>
    </g>
    <path d="M-0,85.3 L69,31 L137.4,84.7 L119.55,42.1 L69,-0.5 L60,7 L59.1,28.3 L30.938,50.538 L28.95,32.631 L18.3,41.5 L-0,85.3 z" fill="#000000"/>
    <path d="M30.113,19.375 L32.925,45.156 L56.738,26.5 L56.738,19.281 L30.113,19.375 z" fill="#000000"/>
  </g>
</svg>
