<?xml version="1.0" encoding="UTF-8"?>
<!DOCTYPE svg PUBLIC "-//W3C//DTD SVG 1.1//EN" "http://www.w3.org/Graphics/SVG/1.1/DTD/svg11.dtd">
<svg version="1.1" xmlns="http://www.w3.org/2000/svg" xmlns:xlink="http://www.w3.org/1999/xlink" x="0" y="0" width="390" height="330" viewBox="0, 0, 390, 330">
  <g id="Image">
    <path d="M59.139,57 L327.733,57 L327.733,323.518 L59.139,323.518 L59.139,57 z" fill-opacity="0" stroke="#000000" stroke-width="3"/>
    <path d="M172.73,56 C159.337,56 148.48,45.143 148.48,31.75 C148.48,18.357 159.337,7.5 172.73,7.5 C186.123,7.5 196.98,18.357 196.98,31.75 C196.98,45.143 186.123,56 172.73,56 z" fill-opacity="0" stroke="#000000" stroke-width="3"/>
    <path d="M44.782,323.5 C21.867,323.5 3.292,304.924 3.292,282.01 C3.292,259.095 21.867,240.52 44.782,240.52 C67.696,240.52 86.272,259.095 86.272,282.01 C86.272,304.924 67.696,323.5 44.782,323.5 z" fill-opacity="0" stroke="#000000" stroke-width="3"/>
    <path d="M344.782,323.5 C321.867,323.5 303.292,304.924 303.292,282.01 C303.292,259.095 321.867,240.52 344.782,240.52 C367.696,240.52 386.272,259.095 386.272,282.01 C386.272,304.924 367.696,323.5 344.782,323.5 z" fill-opacity="0" stroke="#000000" stroke-width="3"/>
    <path d="M256.647,323.518 C244.083,323.518 233.897,313.332 233.897,300.768 C233.897,288.203 244.083,278.018 256.647,278.018 C269.211,278.018 279.397,288.203 279.397,300.768 C279.397,313.332 269.211,323.518 256.647,323.518 z" fill-opacity="0" stroke="#000000" stroke-width="3"/>
    <path d="M120.647,323.518 C108.083,323.518 97.897,313.332 97.897,300.768 C97.897,288.203 108.083,278.018 120.647,278.018 C133.211,278.018 143.397,288.203 143.397,300.768 C143.397,313.332 133.211,323.518 120.647,323.518 z" fill-opacity="0" stroke="#000000" stroke-width="3"/>
    <path d="M193.436,324.547 C119.265,324.547 59.139,264.42 59.139,190.25 C59.139,116.08 119.265,55.953 193.436,55.953 C267.606,55.953 327.733,116.08 327.733,190.25 C327.733,264.42 267.606,324.547 193.436,324.547 z" fill-opacity="0" stroke="#000000" stroke-width="3"/>
    <path d="M59.139,190.25 L327.733,190.25" fill-opacity="0" stroke="#000000" stroke-width="3"/>
    <path d="M192.389,323.5 L192.389,57" fill-opacity="0" stroke="#000000" stroke-width="3"/>
    <path d="M59.139,57 L327.733,323.518" fill-opacity="0" stroke="#000000" stroke-width="3"/>
    <path d="M327.733,57 L61.233,323.518" fill-opacity="0" stroke="#000000" stroke-width="3"/>
    <g>
      <path d="M195.675,37.631 Q305.876,297.157 305.657,297.02 C309.439,304.359 316.469,321.421 340.917,322.208 L340.917,323.943 C265.664,323.942 258.017,323.943 258.017,323.943 C257.978,323.942 258.04,322.219 258.103,322.224 C267.625,323.018 286.364,311.646 276.014,288.412 C270.644,276.356 260.314,254.07 254.161,240.19 C242.717,214.377 242.25,214.953 235.746,199.39 C210.08,199.314 135.767,199.389 135.767,199.389 Q126.133,224.57 120.705,239.476 Q105.664,274.575 100.236,289.698 C92.346,309.76 104.5,324.75 123.396,321.97 C123.595,321.941 123.608,323.936 123.437,323.938 C123.417,324.065 43.013,324.056 43.013,324.056 C43.013,324.056 43.09,322.138 43.138,322.136 C79.8,320.5 84.456,287.434 84.456,287.434 Q100.91,242.285 110.991,216.361 Q121.073,190.437 131.735,163 Q142.398,135.564 152.867,107.696 Q163.335,79.827 172.641,55.632 C172.641,55.632 190.331,55.379 195.675,37.631 z M181.169,76.727 L138.921,189.54 L231.306,189.54 L181.169,76.727 z" fill="#000000"/>
      <path d="M195.675,37.631 Q305.876,297.157 305.657,297.02 C309.439,304.359 316.469,321.421 340.917,322.208 L340.917,323.943 C265.664,323.942 258.017,323.943 258.017,323.943 C257.978,323.942 258.04,322.219 258.103,322.224 C267.625,323.018 286.364,311.646 276.014,288.412 C270.644,276.356 260.314,254.07 254.161,240.19 C242.717,214.377 242.25,214.953 235.746,199.39 C210.08,199.314 135.767,199.389 135.767,199.389 Q126.133,224.57 120.705,239.476 Q105.664,274.575 100.236,289.698 C92.346,309.76 104.5,324.75 123.396,321.97 C123.595,321.941 123.608,323.936 123.437,323.938 C123.417,324.065 43.013,324.056 43.013,324.056 C43.013,324.056 43.09,322.138 43.138,322.136 C79.8,320.5 84.456,287.434 84.456,287.434 Q100.91,242.285 110.991,216.361 Q121.073,190.437 131.735,163 Q142.398,135.564 152.867,107.696 Q163.335,79.827 172.641,55.632 C172.641,55.632 190.331,55.379 195.675,37.631 z M181.169,76.727 L138.921,189.54 L231.306,189.54 L181.169,76.727 z" fill-opacity="0" stroke="#000000" stroke-width="1"/>
    </g>
  </g>
</svg>
